# xmcd
#
# Track frame offsets: 
#        150
#        15085
#        30606
#        48571
#        62715
#        78907
#        94411
#        110739
#        123546
#        137328
#        147557
#        160245
#        181792
#        195764
#        208502
#        219925
#        233762
#        246623
#        262618
#        280641
#        294201
#        306949
#        320320
#
# Disc length: 4588 seconds
#
# Revision: 0
# Processed by: cddbd v1.5.2PL0 Copyright (c) Steve Scherf et al.
# Submitted via: ExactAudioCopy v1.1
#
DISCID=3911ea17
DTITLE=Various Artist - Top 40 Carnaval Hits - The Ultimate Top 40 Collection
DTITLE=Various Artist - CD 2
DYEAR=2019
DGENRE=Folklore
TTITLE0=Gebroeders Ko - Boten Anna
TTITLE1=Raymond Havelaar En Theo Van Veghel - Bij Ons Staat Op De Keuk
TTITLE1=endeur
TTITLE2=Arie Ribbens - Polonaise Hollandaise
TTITLE3=De Boswachters - Het Bananenlied
TTITLE4=Marianne Weber - De Italiaan
TTITLE5=Vader Abraham - Dan Zingen We 1,2,3 (Waar Zou Toch De Zevende 
TTITLE5=Hemel Zijn)
TTITLE6=One Two Trio - 10 Kleine Tuinkabouters
TTITLE7=Leo Nardell - Laat De Boel Maar Lekker Waaien
TTITLE8=Stef Ekkel - Laat De Glazen Nu Maar Klinken
TTITLE9=Snappie - Snappie, De Kleine Krokodil
TTITLE10=Gebroeders Rossig - Hallo Allemaal
TTITLE11=V.O.F. De Kunst - Suzanne
TTITLE12=De Stipkes - Unne Spijker In Munne Kop
TTITLE13=Sjakie Schram - Glaasje Op... Laat Je Rijden
TTITLE14=De Bloaskaken - De Souza
TTITLE15=The Double DJ's Feat. DJ Goldfinger - De Boerenjongens
TTITLE16=Rob Van Daal - We Benne Op De Wereld
TTITLE17=The Partyjocks - Sweet Caroline
TTITLE18=Van Bill - Ga Maar Weg
TTITLE19=Grad Damen - Ik Wil Met Je Dansen Heel De Nacht
TTITLE20=Rob Ronalds - Och Was Ik Maar
TTITLE21=Feest DJ Maarten - Wat Een Lekkere Kont
TTITLE22=Koos Alberts - 'n Hollands Feestje (Medley)
EXTD=
EXTT0=
EXTT1=
EXTT2=
EXTT3=
EXTT4=
EXTT5=
EXTT6=
EXTT7=
EXTT8=
EXTT9=
EXTT10=
EXTT11=
EXTT12=
EXTT13=
EXTT14=
EXTT15=
EXTT16=
EXTT17=
EXTT18=
EXTT19=
EXTT20=
EXTT21=
EXTT22=
PLAYORDER=
